<?xml version="1.0" encoding="UTF-8" standalone="no"?>
<!DOCTYPE svg PUBLIC "-//W3C//DTD SVG 1.1//EN"
 "http://www.w3.org/Graphics/SVG/1.1/DTD/svg11.dtd">
<!-- Generated by graphviz version 7.0.3 (20221126.0506)
 -->
<!-- Pages: 1 -->
<svg width="1310pt" height="404pt"
 viewBox="0.00 0.00 1309.98 404.00" xmlns="http://www.w3.org/2000/svg" xmlns:xlink="http://www.w3.org/1999/xlink">
<g id="graph0" class="graph" transform="scale(1 1) rotate(0) translate(4 400)">
<polygon fill="white" stroke="none" points="-4,4 -4,-400 1305.98,-400 1305.98,4 -4,4"/>
<!-- [root] azurerm_application_insights.appin (expand) -->
<g id="node1" class="node">
<title>[root] azurerm_application_insights.appin (expand)</title>
<polygon fill="none" stroke="black" points="890.59,-180 677.59,-180 677.59,-144 890.59,-144 890.59,-180"/>
<text text-anchor="middle" x="784.09" y="-158.3" font-family="Times New Roman,serif" font-size="14.00">azurerm_application_insights.appin</text>
</g>
<!-- [root] azurerm_resource_group.rg (expand) -->
<g id="node3" class="node">
<title>[root] azurerm_resource_group.rg (expand)</title>
<polygon fill="none" stroke="black" points="442.09,-108 270.09,-108 270.09,-72 442.09,-72 442.09,-108"/>
<text text-anchor="middle" x="356.09" y="-86.3" font-family="Times New Roman,serif" font-size="14.00">azurerm_resource_group.rg</text>
</g>
<!-- [root] azurerm_application_insights.appin (expand)&#45;&gt;[root] azurerm_resource_group.rg (expand) -->
<g id="edge1" class="edge">
<title>[root] azurerm_application_insights.appin (expand)&#45;&gt;[root] azurerm_resource_group.rg (expand)</title>
<path fill="none" stroke="black" d="M677.15,-144.52C614.74,-134.77 534.18,-121.97 453.87,-108.45"/>
<polygon fill="black" stroke="black" points="454.48,-105.01 444.04,-106.8 453.31,-111.91 454.48,-105.01"/>
</g>
<!-- [root] local.app_insights (expand) -->
<g id="node8" class="node">
<title>[root] local.app_insights (expand)</title>
<ellipse fill="none" stroke="black" cx="1168.09" cy="-90" rx="133.78" ry="18"/>
<text text-anchor="middle" x="1168.09" y="-86.3" font-family="Times New Roman,serif" font-size="14.00">[root] local.app_insights (expand)</text>
</g>
<!-- [root] azurerm_application_insights.appin (expand)&#45;&gt;[root] local.app_insights (expand) -->
<g id="edge2" class="edge">
<title>[root] azurerm_application_insights.appin (expand)&#45;&gt;[root] local.app_insights (expand)</title>
<path fill="none" stroke="black" d="M880,-143.52C941.15,-132.37 1019.81,-118.03 1079.49,-107.15"/>
<polygon fill="black" stroke="black" points="1080.08,-110.6 1089.29,-105.36 1078.82,-103.71 1080.08,-110.6"/>
</g>
<!-- [root] local.location (expand) -->
<g id="node9" class="node">
<title>[root] local.location (expand)</title>
<ellipse fill="none" stroke="black" cx="577.09" cy="-90" rx="116.98" ry="18"/>
<text text-anchor="middle" x="577.09" y="-86.3" font-family="Times New Roman,serif" font-size="14.00">[root] local.location (expand)</text>
</g>
<!-- [root] azurerm_application_insights.appin (expand)&#45;&gt;[root] local.location (expand) -->
<g id="edge3" class="edge">
<title>[root] azurerm_application_insights.appin (expand)&#45;&gt;[root] local.location (expand)</title>
<path fill="none" stroke="black" d="M732.39,-143.52C702.61,-133.45 665.12,-120.77 634.44,-110.39"/>
<polygon fill="black" stroke="black" points="635.92,-107.2 625.33,-107.31 633.68,-113.83 635.92,-107.2"/>
</g>
<!-- [root] azurerm_linux_function_app.fapp1 (expand) -->
<g id="node2" class="node">
<title>[root] azurerm_linux_function_app.fapp1 (expand)</title>
<polygon fill="none" stroke="black" points="555.09,-252 343.09,-252 343.09,-216 555.09,-216 555.09,-252"/>
<text text-anchor="middle" x="449.09" y="-230.3" font-family="Times New Roman,serif" font-size="14.00">azurerm_linux_function_app.fapp1</text>
</g>
<!-- [root] azurerm_linux_function_app.fapp1 (expand)&#45;&gt;[root] azurerm_application_insights.appin (expand) -->
<g id="edge4" class="edge">
<title>[root] azurerm_linux_function_app.fapp1 (expand)&#45;&gt;[root] azurerm_application_insights.appin (expand)</title>
<path fill="none" stroke="black" d="M532.76,-215.52C580.41,-205.56 640.27,-193.05 689.61,-182.74"/>
<polygon fill="black" stroke="black" points="690.06,-186.22 699.13,-180.75 688.63,-179.37 690.06,-186.22"/>
</g>
<!-- [root] azurerm_service_plan.fx_asp (expand) -->
<g id="node4" class="node">
<title>[root] azurerm_service_plan.fx_asp (expand)</title>
<polygon fill="none" stroke="black" points="446.09,-180 266.09,-180 266.09,-144 446.09,-144 446.09,-180"/>
<text text-anchor="middle" x="356.09" y="-158.3" font-family="Times New Roman,serif" font-size="14.00">azurerm_service_plan.fx_asp</text>
</g>
<!-- [root] azurerm_linux_function_app.fapp1 (expand)&#45;&gt;[root] azurerm_service_plan.fx_asp (expand) -->
<g id="edge5" class="edge">
<title>[root] azurerm_linux_function_app.fapp1 (expand)&#45;&gt;[root] azurerm_service_plan.fx_asp (expand)</title>
<path fill="none" stroke="black" d="M426.1,-215.7C414.7,-207.11 400.74,-196.61 388.29,-187.24"/>
<polygon fill="black" stroke="black" points="390.44,-184.47 380.34,-181.26 386.23,-190.07 390.44,-184.47"/>
</g>
<!-- [root] azurerm_storage_account.fx_sa (expand) -->
<g id="node5" class="node">
<title>[root] azurerm_storage_account.fx_sa (expand)</title>
<polygon fill="none" stroke="black" points="659.59,-180 464.59,-180 464.59,-144 659.59,-144 659.59,-180"/>
<text text-anchor="middle" x="562.09" y="-158.3" font-family="Times New Roman,serif" font-size="14.00">azurerm_storage_account.fx_sa</text>
</g>
<!-- [root] azurerm_linux_function_app.fapp1 (expand)&#45;&gt;[root] azurerm_storage_account.fx_sa (expand) -->
<g id="edge6" class="edge">
<title>[root] azurerm_linux_function_app.fapp1 (expand)&#45;&gt;[root] azurerm_storage_account.fx_sa (expand)</title>
<path fill="none" stroke="black" d="M477.31,-215.52C491.58,-206.68 509.08,-195.84 524.47,-186.3"/>
<polygon fill="black" stroke="black" points="526.28,-189.3 532.94,-181.06 522.59,-183.35 526.28,-189.3"/>
</g>
<!-- [root] provider[&quot;registry.terraform.io/hashicorp/azurerm&quot;] -->
<g id="node7" class="node">
<title>[root] provider[&quot;registry.terraform.io/hashicorp/azurerm&quot;]</title>
<polygon fill="none" stroke="black" points="356.09,-36 78.42,-18 356.09,0 633.76,-18 356.09,-36"/>
<text text-anchor="middle" x="356.09" y="-14.3" font-family="Times New Roman,serif" font-size="14.00">provider[&quot;registry.terraform.io/hashicorp/azurerm&quot;]</text>
</g>
<!-- [root] azurerm_resource_group.rg (expand)&#45;&gt;[root] provider[&quot;registry.terraform.io/hashicorp/azurerm&quot;] -->
<g id="edge7" class="edge">
<title>[root] azurerm_resource_group.rg (expand)&#45;&gt;[root] provider[&quot;registry.terraform.io/hashicorp/azurerm&quot;]</title>
<path fill="none" stroke="black" d="M356.09,-71.7C356.09,-64.41 356.09,-55.73 356.09,-47.54"/>
<polygon fill="black" stroke="black" points="359.59,-47.62 356.09,-37.62 352.59,-47.62 359.59,-47.62"/>
</g>
<!-- [root] azurerm_service_plan.fx_asp (expand)&#45;&gt;[root] azurerm_resource_group.rg (expand) -->
<g id="edge8" class="edge">
<title>[root] azurerm_service_plan.fx_asp (expand)&#45;&gt;[root] azurerm_resource_group.rg (expand)</title>
<path fill="none" stroke="black" d="M356.09,-143.7C356.09,-136.41 356.09,-127.73 356.09,-119.54"/>
<polygon fill="black" stroke="black" points="359.59,-119.62 356.09,-109.62 352.59,-119.62 359.59,-119.62"/>
</g>
<!-- [root] azurerm_service_plan.fx_asp (expand)&#45;&gt;[root] local.location (expand) -->
<g id="edge10" class="edge">
<title>[root] azurerm_service_plan.fx_asp (expand)&#45;&gt;[root] local.location (expand)</title>
<path fill="none" stroke="black" d="M411.29,-143.52C443.33,-133.37 483.74,-120.57 516.64,-110.15"/>
<polygon fill="black" stroke="black" points="517.57,-113.52 526.05,-107.17 515.46,-106.85 517.57,-113.52"/>
</g>
<!-- [root] local.app_plans (expand) -->
<g id="node10" class="node">
<title>[root] local.app_plans (expand)</title>
<ellipse fill="none" stroke="black" cx="126.09" cy="-90" rx="126.18" ry="18"/>
<text text-anchor="middle" x="126.09" y="-86.3" font-family="Times New Roman,serif" font-size="14.00">[root] local.app_plans (expand)</text>
</g>
<!-- [root] azurerm_service_plan.fx_asp (expand)&#45;&gt;[root] local.app_plans (expand) -->
<g id="edge9" class="edge">
<title>[root] azurerm_service_plan.fx_asp (expand)&#45;&gt;[root] local.app_plans (expand)</title>
<path fill="none" stroke="black" d="M298.64,-143.52C265.27,-133.36 223.17,-120.55 188.92,-110.12"/>
<polygon fill="black" stroke="black" points="190.13,-106.83 179.54,-107.27 188.09,-113.53 190.13,-106.83"/>
</g>
<!-- [root] azurerm_storage_account.fx_sa (expand)&#45;&gt;[root] azurerm_resource_group.rg (expand) -->
<g id="edge11" class="edge">
<title>[root] azurerm_storage_account.fx_sa (expand)&#45;&gt;[root] azurerm_resource_group.rg (expand)</title>
<path fill="none" stroke="black" d="M510.64,-143.52C482.51,-133.96 447.48,-122.05 417.88,-112"/>
<polygon fill="black" stroke="black" points="419.27,-108.77 408.67,-108.87 417.02,-115.4 419.27,-108.77"/>
</g>
<!-- [root] azurerm_storage_account.fx_sa (expand)&#45;&gt;[root] local.location (expand) -->
<g id="edge12" class="edge">
<title>[root] azurerm_storage_account.fx_sa (expand)&#45;&gt;[root] local.location (expand)</title>
<path fill="none" stroke="black" d="M565.8,-143.7C567.38,-136.32 569.26,-127.52 571.04,-119.25"/>
<polygon fill="black" stroke="black" points="574.43,-120.1 573.11,-109.58 567.59,-118.63 574.43,-120.1"/>
</g>
<!-- [root] local.storage_accounts (expand) -->
<g id="node11" class="node">
<title>[root] local.storage_accounts (expand)</title>
<ellipse fill="none" stroke="black" cx="864.09" cy="-90" rx="152.17" ry="18"/>
<text text-anchor="middle" x="864.09" y="-86.3" font-family="Times New Roman,serif" font-size="14.00">[root] local.storage_accounts (expand)</text>
</g>
<!-- [root] azurerm_storage_account.fx_sa (expand)&#45;&gt;[root] local.storage_accounts (expand) -->
<g id="edge13" class="edge">
<title>[root] azurerm_storage_account.fx_sa (expand)&#45;&gt;[root] local.storage_accounts (expand)</title>
<path fill="none" stroke="black" d="M637.52,-143.52C682.71,-133.04 740.07,-119.75 785.77,-109.15"/>
<polygon fill="black" stroke="black" points="786.39,-112.6 795.34,-106.93 784.81,-105.78 786.39,-112.6"/>
</g>
<!-- [root] azurerm_windows_function_app.fapp2 (expand) -->
<g id="node6" class="node">
<title>[root] azurerm_windows_function_app.fapp2 (expand)</title>
<polygon fill="none" stroke="black" points="809.09,-252 573.09,-252 573.09,-216 809.09,-216 809.09,-252"/>
<text text-anchor="middle" x="691.09" y="-230.3" font-family="Times New Roman,serif" font-size="14.00">azurerm_windows_function_app.fapp2</text>
</g>
<!-- [root] azurerm_windows_function_app.fapp2 (expand)&#45;&gt;[root] azurerm_application_insights.appin (expand) -->
<g id="edge14" class="edge">
<title>[root] azurerm_windows_function_app.fapp2 (expand)&#45;&gt;[root] azurerm_application_insights.appin (expand)</title>
<path fill="none" stroke="black" d="M714.08,-215.7C725.48,-207.11 739.44,-196.61 751.89,-187.24"/>
<polygon fill="black" stroke="black" points="753.95,-190.07 759.83,-181.26 749.74,-184.47 753.95,-190.07"/>
</g>
<!-- [root] azurerm_windows_function_app.fapp2 (expand)&#45;&gt;[root] azurerm_service_plan.fx_asp (expand) -->
<g id="edge15" class="edge">
<title>[root] azurerm_windows_function_app.fapp2 (expand)&#45;&gt;[root] azurerm_service_plan.fx_asp (expand)</title>
<path fill="none" stroke="black" d="M607.42,-215.52C559.76,-205.56 499.91,-193.05 450.57,-182.74"/>
<polygon fill="black" stroke="black" points="451.55,-179.37 441.04,-180.75 450.12,-186.22 451.55,-179.37"/>
</g>
<!-- [root] azurerm_windows_function_app.fapp2 (expand)&#45;&gt;[root] azurerm_storage_account.fx_sa (expand) -->
<g id="edge16" class="edge">
<title>[root] azurerm_windows_function_app.fapp2 (expand)&#45;&gt;[root] azurerm_storage_account.fx_sa (expand)</title>
<path fill="none" stroke="black" d="M658.87,-215.52C642.2,-206.47 621.65,-195.32 603.78,-185.62"/>
<polygon fill="black" stroke="black" points="605.69,-182.68 595.23,-180.98 602.35,-188.83 605.69,-182.68"/>
</g>
<!-- [root] provider[&quot;registry.terraform.io/hashicorp/azurerm&quot;] (close) -->
<g id="node12" class="node">
<title>[root] provider[&quot;registry.terraform.io/hashicorp/azurerm&quot;] (close)</title>
<ellipse fill="none" stroke="black" cx="570.09" cy="-306" rx="246.96" ry="18"/>
<text text-anchor="middle" x="570.09" y="-302.3" font-family="Times New Roman,serif" font-size="14.00">[root] provider[&quot;registry.terraform.io/hashicorp/azurerm&quot;] (close)</text>
</g>
<!-- [root] provider[&quot;registry.terraform.io/hashicorp/azurerm&quot;] (close)&#45;&gt;[root] azurerm_linux_function_app.fapp1 (expand) -->
<g id="edge17" class="edge">
<title>[root] provider[&quot;registry.terraform.io/hashicorp/azurerm&quot;] (close)&#45;&gt;[root] azurerm_linux_function_app.fapp1 (expand)</title>
<path fill="none" stroke="black" d="M540.18,-287.7C524.62,-278.69 505.39,-267.57 488.62,-257.87"/>
<polygon fill="black" stroke="black" points="490.79,-255.08 480.38,-253.1 487.29,-261.14 490.79,-255.08"/>
</g>
<!-- [root] provider[&quot;registry.terraform.io/hashicorp/azurerm&quot;] (close)&#45;&gt;[root] azurerm_windows_function_app.fapp2 (expand) -->
<g id="edge18" class="edge">
<title>[root] provider[&quot;registry.terraform.io/hashicorp/azurerm&quot;] (close)&#45;&gt;[root] azurerm_windows_function_app.fapp2 (expand)</title>
<path fill="none" stroke="black" d="M600,-287.7C615.56,-278.69 634.79,-267.57 651.56,-257.87"/>
<polygon fill="black" stroke="black" points="652.89,-261.14 659.79,-253.1 649.38,-255.08 652.89,-261.14"/>
</g>
<!-- [root] root -->
<g id="node13" class="node">
<title>[root] root</title>
<ellipse fill="none" stroke="black" cx="570.09" cy="-378" rx="49.29" ry="18"/>
<text text-anchor="middle" x="570.09" y="-374.3" font-family="Times New Roman,serif" font-size="14.00">[root] root</text>
</g>
<!-- [root] root&#45;&gt;[root] provider[&quot;registry.terraform.io/hashicorp/azurerm&quot;] (close) -->
<g id="edge19" class="edge">
<title>[root] root&#45;&gt;[root] provider[&quot;registry.terraform.io/hashicorp/azurerm&quot;] (close)</title>
<path fill="none" stroke="black" d="M570.09,-359.7C570.09,-352.41 570.09,-343.73 570.09,-335.54"/>
<polygon fill="black" stroke="black" points="573.59,-335.62 570.09,-325.62 566.59,-335.62 573.59,-335.62"/>
</g>
</g>
</svg>
